<svg width="280" height="48" viewBox="0 0 280 48" fill="none" xmlns="http://www.w3.org/2000/svg">
  <!-- Helvion Warm Chat Logo - Full (Light BG) -->
  <path d="M3.6 19.2C3.6 12.572 8.972 7.2 15.6 7.2H20.4C27.028 7.2 32.4 12.572 32.4 19.2V21.6C32.4 28.228 27.028 33.6 20.4 33.6H16.8L9.6 39V33.6C6.3 31.5 3.6 27.6 3.6 24V19.2Z" fill="#FBBF24"/>
  <path d="M20.4 19.2C20.4 13.898 24.698 9.6 30 9.6H32.4C37.702 9.6 42 13.898 42 19.2V21.6C42 26.902 37.702 31.2 32.4 31.2H30L25.2 34.8V31.32C22.56 29.76 20.4 26.7 20.4 24V19.2Z" fill="#D97706"/>
  <text x="50" y="33" font-family="Manrope, -apple-system, sans-serif" font-size="28" font-weight="800" letter-spacing="-0.5" fill="#0C0A09">Helvion<tspan fill="#F59E0B">.</tspan></text>
</svg>

