<svg width="1200" height="700" viewBox="0 0 1200 700" fill="none" xmlns="http://www.w3.org/2000/svg">
  <rect width="1200" height="700" rx="16" fill="#FFFFFF"/>
  <rect x="1" y="1" width="1198" height="698" rx="15" stroke="#E2E8F0" stroke-width="2"/>
  <!-- Header -->
  <rect x="40" y="28" width="120" height="18" rx="9" fill="#0F172A"/>
  <rect x="40" y="52" width="200" height="10" rx="5" fill="#94A3B8"/>
  <!-- Date range -->
  <rect x="960" y="28" width="200" height="36" rx="10" fill="#F1F5F9" stroke="#E2E8F0"/>
  <rect x="980" y="42" width="120" height="8" rx="4" fill="#64748B"/>

  <!-- Stats cards row -->
  <rect x="40" y="88" width="270" height="110" rx="14" fill="#FFFFFF" stroke="#E2E8F0"/>
  <rect x="64" y="108" width="80" height="10" rx="5" fill="#94A3B8"/>
  <rect x="64" y="128" width="60" height="28" rx="6" fill="#0F172A"/>
  <rect x="64" y="168" width="100" height="8" rx="4" fill="#22C55E" fill-opacity="0.4"/>
  <rect x="172" y="168" width="40" height="8" rx="4" fill="#22C55E"/>

  <rect x="330" y="88" width="270" height="110" rx="14" fill="#FFFFFF" stroke="#E2E8F0"/>
  <rect x="354" y="108" width="100" height="10" rx="5" fill="#94A3B8"/>
  <rect x="354" y="128" width="48" height="28" rx="6" fill="#0F172A"/>
  <rect x="354" y="168" width="140" height="8" rx="4" fill="#4B45FF" fill-opacity="0.4"/>
  <rect x="502" y="168" width="40" height="8" rx="4" fill="#4B45FF"/>

  <rect x="620" y="88" width="270" height="110" rx="14" fill="#FFFFFF" stroke="#E2E8F0"/>
  <rect x="644" y="108" width="120" height="10" rx="5" fill="#94A3B8"/>
  <rect x="644" y="128" width="72" height="28" rx="6" fill="#0F172A"/>
  <rect x="644" y="168" width="80" height="8" rx="4" fill="#6C67FF" fill-opacity="0.4"/>
  <rect x="732" y="168" width="40" height="8" rx="4" fill="#6C67FF"/>

  <rect x="910" y="88" width="250" height="110" rx="14" fill="#FFFFFF" stroke="#E2E8F0"/>
  <rect x="934" y="108" width="90" height="10" rx="5" fill="#94A3B8"/>
  <rect x="934" y="128" width="56" height="28" rx="6" fill="#0F172A"/>
  <rect x="934" y="168" width="60" height="8" rx="4" fill="#F59E0B" fill-opacity="0.4"/>
  <rect x="1002" y="168" width="40" height="8" rx="4" fill="#F59E0B"/>

  <!-- Main chart area -->
  <rect x="40" y="220" width="720" height="340" rx="14" fill="#FFFFFF" stroke="#E2E8F0"/>
  <rect x="64" y="244" width="140" height="14" rx="7" fill="#0F172A"/>
  <rect x="64" y="264" width="100" height="10" rx="5" fill="#94A3B8"/>
  <!-- Y axis labels -->
  <rect x="64" y="300" width="24" height="8" rx="4" fill="#CBD5E1"/>
  <rect x="64" y="340" width="24" height="8" rx="4" fill="#CBD5E1"/>
  <rect x="64" y="380" width="24" height="8" rx="4" fill="#CBD5E1"/>
  <rect x="64" y="420" width="24" height="8" rx="4" fill="#CBD5E1"/>
  <rect x="64" y="460" width="24" height="8" rx="4" fill="#CBD5E1"/>
  <!-- Grid lines -->
  <line x1="100" y1="304" x2="736" y2="304" stroke="#F1F5F9" stroke-width="1"/>
  <line x1="100" y1="344" x2="736" y2="344" stroke="#F1F5F9" stroke-width="1"/>
  <line x1="100" y1="384" x2="736" y2="384" stroke="#F1F5F9" stroke-width="1"/>
  <line x1="100" y1="424" x2="736" y2="424" stroke="#F1F5F9" stroke-width="1"/>
  <line x1="100" y1="464" x2="736" y2="464" stroke="#F1F5F9" stroke-width="1"/>
  <!-- Chart bars -->
  <rect x="120" y="340" width="32" height="140" rx="4" fill="#4B45FF" fill-opacity="0.7"/>
  <rect x="120" y="380" width="32" height="100" rx="4" fill="#4B45FF" fill-opacity="0.2"/>
  <rect x="200" y="310" width="32" height="170" rx="4" fill="#4B45FF" fill-opacity="0.7"/>
  <rect x="200" y="360" width="32" height="120" rx="4" fill="#4B45FF" fill-opacity="0.2"/>
  <rect x="280" y="360" width="32" height="120" rx="4" fill="#4B45FF" fill-opacity="0.7"/>
  <rect x="280" y="400" width="32" height="80" rx="4" fill="#4B45FF" fill-opacity="0.2"/>
  <rect x="360" y="300" width="32" height="180" rx="4" fill="#4B45FF" fill-opacity="0.7"/>
  <rect x="360" y="340" width="32" height="140" rx="4" fill="#4B45FF" fill-opacity="0.2"/>
  <rect x="440" y="320" width="32" height="160" rx="4" fill="#4B45FF" fill-opacity="0.7"/>
  <rect x="440" y="370" width="32" height="110" rx="4" fill="#4B45FF" fill-opacity="0.2"/>
  <rect x="520" y="290" width="32" height="190" rx="4" fill="#4B45FF" fill-opacity="0.7"/>
  <rect x="520" y="330" width="32" height="150" rx="4" fill="#4B45FF" fill-opacity="0.2"/>
  <rect x="600" y="310" width="32" height="170" rx="4" fill="#4B45FF" fill-opacity="0.7"/>
  <rect x="600" y="350" width="32" height="130" rx="4" fill="#4B45FF" fill-opacity="0.2"/>
  <rect x="680" y="280" width="32" height="200" rx="4" fill="#4B45FF"/>
  <rect x="680" y="320" width="32" height="160" rx="4" fill="#4B45FF" fill-opacity="0.2"/>
  <!-- Legend -->
  <circle cx="580" y="252" r="5" fill="#4B45FF"/>
  <rect x="592" y="248" width="60" height="8" rx="4" fill="#64748B"/>
  <circle cx="668" y="252" r="5" fill="#4B45FF" fill-opacity="0.3"/>
  <rect x="680" y="248" width="48" height="8" rx="4" fill="#64748B"/>

  <!-- Right panel - satisfaction -->
  <rect x="780" y="220" width="380" height="160" rx="14" fill="#FFFFFF" stroke="#E2E8F0"/>
  <rect x="804" y="244" width="120" height="14" rx="7" fill="#0F172A"/>
  <rect x="804" y="264" width="80" height="10" rx="5" fill="#94A3B8"/>
  <!-- Donut chart placeholder -->
  <circle cx="960" cy="310" r="44" fill="none" stroke="#E2E8F0" stroke-width="12"/>
  <circle cx="960" cy="310" r="44" fill="none" stroke="#4B45FF" stroke-width="12" stroke-dasharray="220 56" stroke-linecap="round"/>
  <rect x="940" y="304" width="40" height="14" rx="7" fill="#0F172A"/>
  <!-- Labels -->
  <rect x="804" y="300" width="8" height="8" rx="2" fill="#4B45FF"/>
  <rect x="818" y="300" width="60" height="8" rx="4" fill="#64748B"/>
  <rect x="804" y="316" width="8" height="8" rx="2" fill="#22C55E"/>
  <rect x="818" y="316" width="48" height="8" rx="4" fill="#64748B"/>
  <rect x="804" y="332" width="8" height="8" rx="2" fill="#E2E8F0"/>
  <rect x="818" y="332" width="56" height="8" rx="4" fill="#64748B"/>

  <!-- Team performance -->
  <rect x="780" y="400" width="380" height="160" rx="14" fill="#FFFFFF" stroke="#E2E8F0"/>
  <rect x="804" y="420" width="140" height="14" rx="7" fill="#0F172A"/>
  <!-- Team rows -->
  <circle cx="820" cy="460" r="12" fill="#4B45FF"/>
  <rect x="840" y="454" width="80" height="10" rx="5" fill="#334155"/>
  <rect x="940" y="454" width="120" height="10" rx="5" fill="#22C55E" fill-opacity="0.3"/>
  <rect x="940" y="454" width="96" height="10" rx="5" fill="#22C55E" fill-opacity="0.6"/>
  <rect x="1080" y="454" width="40" height="10" rx="5" fill="#22C55E"/>

  <circle cx="820" cy="492" r="12" fill="#6C67FF"/>
  <rect x="840" y="486" width="60" height="10" rx="5" fill="#334155"/>
  <rect x="940" y="486" width="120" height="10" rx="5" fill="#4B45FF" fill-opacity="0.3"/>
  <rect x="940" y="486" width="84" height="10" rx="5" fill="#4B45FF" fill-opacity="0.6"/>
  <rect x="1080" y="486" width="40" height="10" rx="5" fill="#4B45FF"/>

  <circle cx="820" cy="524" r="12" fill="#F59E0B"/>
  <rect x="840" y="518" width="72" height="10" rx="5" fill="#334155"/>
  <rect x="940" y="518" width="120" height="10" rx="5" fill="#F59E0B" fill-opacity="0.3"/>
  <rect x="940" y="518" width="72" height="10" rx="5" fill="#F59E0B" fill-opacity="0.6"/>
  <rect x="1080" y="518" width="40" height="10" rx="5" fill="#F59E0B"/>
</svg>
