<svg width="800" height="520" viewBox="0 0 800 520" fill="none" xmlns="http://www.w3.org/2000/svg">
  <rect width="800" height="520" rx="32" fill="#FFFFFF" stroke="#E2E8F0" stroke-width="2"/>
  <rect x="32" y="28" width="160" height="12" rx="6" fill="#E2E8F0"/>
  <rect x="32" y="60" width="240" height="18" rx="9" fill="#0F5C5C" fill-opacity="0.1"/>

  <rect x="32" y="112" width="736" height="120" rx="20" fill="#F8FAFC" stroke="#E2E8F0"/>
  <rect x="56" y="138" width="140" height="14" rx="7" fill="#CBD5E1"/>
  <rect x="56" y="164" width="200" height="24" rx="12" fill="#0F5C5C" fill-opacity="0.15"/>
  <rect x="300" y="138" width="140" height="14" rx="7" fill="#CBD5E1"/>
  <rect x="300" y="164" width="180" height="24" rx="12" fill="#0F5C5C" fill-opacity="0.15"/>
  <rect x="520" y="138" width="140" height="14" rx="7" fill="#CBD5E1"/>
  <rect x="520" y="164" width="200" height="24" rx="12" fill="#0F5C5C" fill-opacity="0.15"/>

  <rect x="32" y="260" width="360" height="220" rx="20" fill="#FFFFFF" stroke="#E2E8F0"/>
  <rect x="56" y="288" width="120" height="12" rx="6" fill="#CBD5E1"/>
  <rect x="56" y="312" width="280" height="10" rx="5" fill="#E2E8F0"/>
  <rect x="56" y="334" width="260" height="10" rx="5" fill="#E2E8F0"/>
  <rect x="56" y="356" width="220" height="10" rx="5" fill="#E2E8F0"/>

  <rect x="416" y="260" width="352" height="220" rx="20" fill="#FFFFFF" stroke="#E2E8F0"/>
  <rect x="440" y="288" width="120" height="12" rx="6" fill="#CBD5E1"/>
  <rect x="440" y="316" width="280" height="18" rx="9" fill="#0F5C5C" fill-opacity="0.12"/>
  <rect x="440" y="346" width="260" height="10" rx="5" fill="#E2E8F0"/>
  <rect x="440" y="368" width="230" height="10" rx="5" fill="#E2E8F0"/>
</svg>
