<svg width="1200" height="700" viewBox="0 0 1200 700" fill="none" xmlns="http://www.w3.org/2000/svg">
  <rect width="1200" height="700" rx="16" fill="#FFFFFF"/>
  <rect x="1" y="1" width="1198" height="698" rx="15" stroke="#E2E8F0" stroke-width="2"/>
  <!-- Header -->
  <rect x="0" y="0" width="1200" height="80" rx="16" fill="#F8FAFC"/>
  <rect x="0" y="64" width="1200" height="16" fill="#F8FAFC"/>
  <rect x="0" y="80" width="1200" height="1" fill="#E2E8F0"/>
  <rect x="40" y="28" width="120" height="20" rx="10" fill="#4B45FF"/>
  <rect x="56" y="34" width="88" height="8" rx="4" fill="#FFFFFF"/>
  <!-- Search bar -->
  <rect x="360" y="22" width="480" height="40" rx="12" fill="#FFFFFF" stroke="#E2E8F0" stroke-width="1.5"/>
  <rect x="384" y="38" width="160" height="10" rx="5" fill="#CBD5E1"/>

  <!-- Category pills -->
  <rect x="40" y="108" width="80" height="32" rx="16" fill="#4B45FF"/>
  <rect x="52" y="120" width="56" height="8" rx="4" fill="#FFFFFF"/>
  <rect x="132" y="108" width="100" height="32" rx="16" fill="#F1F5F9"/>
  <rect x="148" y="120" width="68" height="8" rx="4" fill="#64748B"/>
  <rect x="244" y="108" width="80" height="32" rx="16" fill="#F1F5F9"/>
  <rect x="260" y="120" width="48" height="8" rx="4" fill="#64748B"/>
  <rect x="336" y="108" width="100" height="32" rx="16" fill="#F1F5F9"/>
  <rect x="352" y="120" width="68" height="8" rx="4" fill="#64748B"/>
  <rect x="448" y="108" width="80" height="32" rx="16" fill="#F1F5F9"/>
  <rect x="464" y="120" width="48" height="8" rx="4" fill="#64748B"/>

  <!-- Article grid -->
  <!-- Row 1 -->
  <rect x="40" y="168" width="360" height="160" rx="14" fill="#FFFFFF" stroke="#E2E8F0"/>
  <rect x="60" y="188" width="40" height="40" rx="12" fill="#4B45FF" fill-opacity="0.1"/>
  <rect x="72" y="200" width="16" height="16" rx="4" fill="#4B45FF"/>
  <rect x="112" y="192" width="200" height="14" rx="7" fill="#0F172A"/>
  <rect x="112" y="214" width="260" height="10" rx="5" fill="#94A3B8"/>
  <rect x="60" y="252" width="320" height="10" rx="5" fill="#CBD5E1"/>
  <rect x="60" y="272" width="280" height="10" rx="5" fill="#CBD5E1"/>
  <rect x="60" y="296" width="80" height="20" rx="10" fill="#4B45FF" fill-opacity="0.1"/>
  <rect x="72" y="302" width="56" height="8" rx="4" fill="#4B45FF"/>

  <rect x="420" y="168" width="360" height="160" rx="14" fill="#FFFFFF" stroke="#E2E8F0"/>
  <rect x="440" y="188" width="40" height="40" rx="12" fill="#22C55E" fill-opacity="0.1"/>
  <rect x="452" y="200" width="16" height="16" rx="4" fill="#22C55E"/>
  <rect x="492" y="192" width="180" height="14" rx="7" fill="#0F172A"/>
  <rect x="492" y="214" width="240" height="10" rx="5" fill="#94A3B8"/>
  <rect x="440" y="252" width="300" height="10" rx="5" fill="#CBD5E1"/>
  <rect x="440" y="272" width="260" height="10" rx="5" fill="#CBD5E1"/>
  <rect x="440" y="296" width="80" height="20" rx="10" fill="#22C55E" fill-opacity="0.1"/>
  <rect x="452" y="302" width="56" height="8" rx="4" fill="#22C55E"/>

  <rect x="800" y="168" width="360" height="160" rx="14" fill="#FFFFFF" stroke="#E2E8F0"/>
  <rect x="820" y="188" width="40" height="40" rx="12" fill="#F59E0B" fill-opacity="0.1"/>
  <rect x="832" y="200" width="16" height="16" rx="4" fill="#F59E0B"/>
  <rect x="872" y="192" width="220" height="14" rx="7" fill="#0F172A"/>
  <rect x="872" y="214" width="260" height="10" rx="5" fill="#94A3B8"/>
  <rect x="820" y="252" width="310" height="10" rx="5" fill="#CBD5E1"/>
  <rect x="820" y="272" width="270" height="10" rx="5" fill="#CBD5E1"/>
  <rect x="820" y="296" width="80" height="20" rx="10" fill="#F59E0B" fill-opacity="0.1"/>
  <rect x="832" y="302" width="56" height="8" rx="4" fill="#F59E0B"/>

  <!-- Row 2 -->
  <rect x="40" y="348" width="360" height="160" rx="14" fill="#FFFFFF" stroke="#E2E8F0"/>
  <rect x="60" y="368" width="40" height="40" rx="12" fill="#6C67FF" fill-opacity="0.1"/>
  <rect x="72" y="380" width="16" height="16" rx="4" fill="#6C67FF"/>
  <rect x="112" y="372" width="240" height="14" rx="7" fill="#0F172A"/>
  <rect x="112" y="394" width="200" height="10" rx="5" fill="#94A3B8"/>
  <rect x="60" y="432" width="300" height="10" rx="5" fill="#CBD5E1"/>
  <rect x="60" y="452" width="260" height="10" rx="5" fill="#CBD5E1"/>

  <rect x="420" y="348" width="360" height="160" rx="14" fill="#FFFFFF" stroke="#E2E8F0"/>
  <rect x="440" y="368" width="40" height="40" rx="12" fill="#EC4899" fill-opacity="0.1"/>
  <rect x="452" y="380" width="16" height="16" rx="4" fill="#EC4899"/>
  <rect x="492" y="372" width="200" height="14" rx="7" fill="#0F172A"/>
  <rect x="492" y="394" width="220" height="10" rx="5" fill="#94A3B8"/>
  <rect x="440" y="432" width="280" height="10" rx="5" fill="#CBD5E1"/>
  <rect x="440" y="452" width="240" height="10" rx="5" fill="#CBD5E1"/>

  <rect x="800" y="348" width="360" height="160" rx="14" fill="#FFFFFF" stroke="#E2E8F0"/>
  <rect x="820" y="368" width="40" height="40" rx="12" fill="#0EA5E9" fill-opacity="0.1"/>
  <rect x="832" y="380" width="16" height="16" rx="4" fill="#0EA5E9"/>
  <rect x="872" y="372" width="180" height="14" rx="7" fill="#0F172A"/>
  <rect x="872" y="394" width="240" height="10" rx="5" fill="#94A3B8"/>
  <rect x="820" y="432" width="320" height="10" rx="5" fill="#CBD5E1"/>
  <rect x="820" y="452" width="280" height="10" rx="5" fill="#CBD5E1"/>

  <!-- Footer stats -->
  <rect x="40" y="544" width="1120" height="1" fill="#E2E8F0"/>
  <rect x="40" y="568" width="80" height="28" rx="8" fill="#4B45FF" fill-opacity="0.08"/>
  <rect x="52" y="578" width="56" height="8" rx="4" fill="#4B45FF"/>
  <rect x="136" y="568" width="100" height="28" rx="8" fill="#F1F5F9"/>
  <rect x="148" y="578" width="76" height="8" rx="4" fill="#64748B"/>
</svg>
