<svg width="1200" height="700" viewBox="0 0 1200 700" fill="none" xmlns="http://www.w3.org/2000/svg">
  <!-- Window -->
  <rect width="1200" height="700" rx="16" fill="#FFFFFF"/>
  <rect x="1" y="1" width="1198" height="698" rx="15" stroke="#E2E8F0" stroke-width="2"/>

  <!-- Left sidebar - conversation list -->
  <rect x="0" y="0" width="340" height="700" rx="16" fill="#F8FAFC"/>
  <rect x="340" y="0" width="1" height="700" fill="#E2E8F0"/>
  <!-- Search -->
  <rect x="20" y="20" width="300" height="40" rx="12" fill="#FFFFFF" stroke="#E2E8F0"/>
  <rect x="40" y="36" width="80" height="10" rx="5" fill="#CBD5E1"/>
  <!-- Channel tabs -->
  <rect x="20" y="76" width="60" height="28" rx="8" fill="#4B45FF"/>
  <rect x="30" y="86" width="40" height="8" rx="4" fill="#FFFFFF"/>
  <rect x="88" y="76" width="60" height="28" rx="8" fill="#F1F5F9"/>
  <rect x="98" y="86" width="40" height="8" rx="4" fill="#94A3B8"/>
  <rect x="156" y="76" width="60" height="28" rx="8" fill="#F1F5F9"/>
  <rect x="166" y="86" width="40" height="8" rx="4" fill="#94A3B8"/>
  <rect x="224" y="76" width="60" height="28" rx="8" fill="#F1F5F9"/>
  <rect x="234" y="86" width="40" height="8" rx="4" fill="#94A3B8"/>

  <!-- Conversation items -->
  <rect x="12" y="120" width="316" height="72" rx="12" fill="#FFFFFF" stroke="#4B45FF" stroke-width="1.5"/>
  <circle cx="40" cy="156" r="18" fill="#4B45FF"/>
  <rect x="66" y="142" width="100" height="12" rx="6" fill="#0F172A"/>
  <rect x="66" y="160" width="180" height="10" rx="5" fill="#94A3B8"/>
  <rect x="270" y="142" width="40" height="10" rx="5" fill="#94A3B8"/>
  <circle cx="310" cy="164" r="8" fill="#4B45FF"/>

  <rect x="12" y="200" width="316" height="72" rx="12" fill="#FFFFFF"/>
  <circle cx="40" cy="236" r="18" fill="#E2E8F0"/>
  <rect x="66" y="222" width="120" height="12" rx="6" fill="#334155"/>
  <rect x="66" y="240" width="160" height="10" rx="5" fill="#94A3B8"/>
  <rect x="270" y="222" width="40" height="10" rx="5" fill="#94A3B8"/>

  <rect x="12" y="280" width="316" height="72" rx="12" fill="#FFFFFF"/>
  <circle cx="40" cy="316" r="18" fill="#E2E8F0"/>
  <rect x="66" y="302" width="90" height="12" rx="6" fill="#334155"/>
  <rect x="66" y="320" width="200" height="10" rx="5" fill="#94A3B8"/>

  <rect x="12" y="360" width="316" height="72" rx="12" fill="#FFFFFF"/>
  <circle cx="40" cy="396" r="18" fill="#E2E8F0"/>
  <rect x="66" y="382" width="140" height="12" rx="6" fill="#334155"/>
  <rect x="66" y="400" width="170" height="10" rx="5" fill="#94A3B8"/>

  <rect x="12" y="440" width="316" height="72" rx="12" fill="#FFFFFF"/>
  <circle cx="40" cy="476" r="18" fill="#E2E8F0"/>
  <rect x="66" y="462" width="110" height="12" rx="6" fill="#334155"/>
  <rect x="66" y="480" width="150" height="10" rx="5" fill="#94A3B8"/>

  <!-- Main chat area -->
  <rect x="360" y="20" width="520" height="660" fill="#FFFFFF"/>
  <!-- Chat header -->
  <circle cx="384" cy="44" r="18" fill="#4B45FF"/>
  <rect x="410" y="34" width="100" height="12" rx="6" fill="#0F172A"/>
  <rect x="410" y="52" width="60" height="10" rx="5" fill="#22C55E"/>
  <!-- Messages -->
  <rect x="384" y="88" width="260" height="44" rx="14" fill="#F1F5F9"/>
  <rect x="400" y="102" width="200" height="10" rx="5" fill="#64748B"/>
  <rect x="560" y="148" width="300" height="44" rx="14" fill="#4B45FF" fill-opacity="0.1"/>
  <rect x="576" y="162" width="240" height="10" rx="5" fill="#4B45FF"/>
  <rect x="384" y="208" width="220" height="44" rx="14" fill="#F1F5F9"/>
  <rect x="400" y="222" width="180" height="10" rx="5" fill="#64748B"/>
  <rect x="384" y="268" width="300" height="44" rx="14" fill="#F1F5F9"/>
  <rect x="400" y="282" width="240" height="10" rx="5" fill="#64748B"/>
  <rect x="520" y="328" width="340" height="60" rx="14" fill="#4B45FF" fill-opacity="0.1"/>
  <rect x="536" y="342" width="280" height="10" rx="5" fill="#4B45FF"/>
  <rect x="536" y="360" width="200" height="10" rx="5" fill="#4B45FF" fill-opacity="0.6"/>
  <!-- AI suggestion badge -->
  <rect x="536" y="400" width="80" height="24" rx="12" fill="#4B45FF" fill-opacity="0.15"/>
  <rect x="548" y="408" width="56" height="8" rx="4" fill="#4B45FF"/>
  <!-- Input -->
  <rect x="384" y="636" width="476" height="40" rx="12" fill="#F8FAFC" stroke="#E2E8F0"/>
  <rect x="404" y="652" width="120" height="10" rx="5" fill="#CBD5E1"/>

  <!-- Right panel - contact info -->
  <rect x="880" y="0" width="320" height="700" rx="16" fill="#F8FAFC"/>
  <rect x="880" y="0" width="1" height="700" fill="#E2E8F0"/>
  <circle cx="1040" cy="60" r="32" fill="#4B45FF"/>
  <rect x="1000" y="104" width="80" height="14" rx="7" fill="#0F172A"/>
  <rect x="990" y="126" width="100" height="10" rx="5" fill="#94A3B8"/>
  <!-- Contact details -->
  <rect x="904" y="164" width="272" height="1" fill="#E2E8F0"/>
  <rect x="904" y="184" width="60" height="10" rx="5" fill="#94A3B8"/>
  <rect x="904" y="202" width="160" height="12" rx="6" fill="#334155"/>
  <rect x="904" y="232" width="60" height="10" rx="5" fill="#94A3B8"/>
  <rect x="904" y="250" width="200" height="12" rx="6" fill="#334155"/>
  <rect x="904" y="280" width="60" height="10" rx="5" fill="#94A3B8"/>
  <rect x="904" y="298" width="120" height="12" rx="6" fill="#334155"/>
  <!-- Tags -->
  <rect x="904" y="336" width="272" height="1" fill="#E2E8F0"/>
  <rect x="904" y="356" width="40" height="10" rx="5" fill="#94A3B8"/>
  <rect x="904" y="376" width="60" height="24" rx="12" fill="#4B45FF" fill-opacity="0.1"/>
  <rect x="914" y="384" width="40" height="8" rx="4" fill="#4B45FF"/>
  <rect x="972" y="376" width="72" height="24" rx="12" fill="#22C55E" fill-opacity="0.1"/>
  <rect x="982" y="384" width="52" height="8" rx="4" fill="#22C55E"/>
</svg>
