<svg width="800" height="520" viewBox="0 0 800 520" fill="none" xmlns="http://www.w3.org/2000/svg">
  <rect width="800" height="520" rx="32" fill="#FFFFFF" stroke="#E2E8F0" stroke-width="2"/>
  <rect x="24" y="24" width="240" height="472" rx="20" fill="#F8FAFC" stroke="#E2E8F0"/>
  <rect x="40" y="48" width="160" height="12" rx="6" fill="#CBD5E1"/>
  <rect x="40" y="80" width="200" height="36" rx="18" fill="#0F5C5C" fill-opacity="0.12"/>
  <rect x="40" y="132" width="200" height="36" rx="18" fill="#E2E8F0"/>
  <rect x="40" y="184" width="200" height="36" rx="18" fill="#E2E8F0"/>

  <rect x="288" y="24" width="488" height="472" rx="20" fill="#FFFFFF" stroke="#E2E8F0"/>
  <rect x="312" y="48" width="200" height="16" rx="8" fill="#CBD5E1"/>
  <rect x="312" y="84" width="420" height="10" rx="5" fill="#E2E8F0"/>
  <rect x="312" y="104" width="380" height="10" rx="5" fill="#E2E8F0"/>
  <rect x="312" y="136" width="140" height="28" rx="14" fill="#0F5C5C" fill-opacity="0.15"/>
  <rect x="312" y="180" width="420" height="200" rx="16" fill="#F8FAFC" stroke="#E2E8F0"/>
  <rect x="328" y="200" width="280" height="12" rx="6" fill="#E2E8F0"/>
  <rect x="328" y="226" width="320" height="12" rx="6" fill="#E2E8F0"/>
  <rect x="328" y="252" width="240" height="12" rx="6" fill="#E2E8F0"/>
  <rect x="328" y="288" width="360" height="36" rx="18" fill="#0F5C5C" fill-opacity="0.1"/>
</svg>
