<svg width="1200" height="760" viewBox="0 0 1200 760" fill="none" xmlns="http://www.w3.org/2000/svg">
  <!-- Window chrome -->
  <rect width="1200" height="760" rx="16" fill="#0F1117"/>
  <rect x="1" y="1" width="1198" height="758" rx="15" stroke="#2A2B3A" stroke-width="2"/>
  <!-- Title bar -->
  <rect x="0" y="0" width="1200" height="44" rx="16" fill="#16171F"/>
  <rect x="0" y="28" width="1200" height="16" fill="#16171F"/>
  <circle cx="24" cy="22" r="6" fill="#FF5F57"/>
  <circle cx="44" cy="22" r="6" fill="#FEBC2E"/>
  <circle cx="64" cy="22" r="6" fill="#28C840"/>
  <rect x="500" y="14" width="200" height="16" rx="8" fill="#2A2B3A"/>

  <!-- Sidebar -->
  <rect x="0" y="44" width="220" height="716" fill="#12131B"/>
  <rect x="220" y="44" width="1" height="716" fill="#2A2B3A"/>
  <!-- Logo area -->
  <rect x="24" y="64" width="32" height="32" rx="8" fill="#4B45FF"/>
  <rect x="64" y="70" width="80" height="14" rx="7" fill="#3A3B4A"/>
  <!-- Nav items -->
  <rect x="16" y="120" width="188" height="36" rx="10" fill="#4B45FF" fill-opacity="0.15"/>
  <rect x="36" y="132" width="14" height="14" rx="4" fill="#4B45FF"/>
  <rect x="58" y="133" width="72" height="12" rx="6" fill="#4B45FF"/>
  <rect x="36" y="172" width="14" height="14" rx="4" fill="#3A3B4A"/>
  <rect x="58" y="173" width="60" height="12" rx="6" fill="#3A3B4A"/>
  <rect x="36" y="204" width="14" height="14" rx="4" fill="#3A3B4A"/>
  <rect x="58" y="205" width="80" height="12" rx="6" fill="#3A3B4A"/>
  <rect x="36" y="236" width="14" height="14" rx="4" fill="#3A3B4A"/>
  <rect x="58" y="237" width="56" height="12" rx="6" fill="#3A3B4A"/>
  <rect x="36" y="268" width="14" height="14" rx="4" fill="#3A3B4A"/>
  <rect x="58" y="269" width="68" height="12" rx="6" fill="#3A3B4A"/>
  <rect x="36" y="300" width="14" height="14" rx="4" fill="#3A3B4A"/>
  <rect x="58" y="301" width="48" height="12" rx="6" fill="#3A3B4A"/>

  <!-- Main content area -->
  <rect x="221" y="44" width="979" height="716" fill="#0F1117"/>

  <!-- Header bar -->
  <rect x="221" y="44" width="979" height="56" fill="#16171F"/>
  <rect x="221" y="100" width="979" height="1" fill="#2A2B3A"/>
  <rect x="248" y="62" width="140" height="18" rx="9" fill="#E2E4EA"/>
  <rect x="248" y="84" width="200" height="12" rx="6" fill="#3A3B4A"/>
  <!-- Search bar -->
  <rect x="900" y="60" width="260" height="32" rx="8" fill="#1E1F2E" stroke="#2A2B3A"/>
  <rect x="916" y="72" width="80" height="10" rx="5" fill="#3A3B4A"/>

  <!-- Stats row -->
  <rect x="248" y="120" width="224" height="100" rx="14" fill="#16171F" stroke="#2A2B3A"/>
  <rect x="272" y="140" width="80" height="10" rx="5" fill="#3A3B4A"/>
  <rect x="272" y="162" width="60" height="28" rx="6" fill="#E2E4EA"/>
  <rect x="272" y="198" width="120" height="8" rx="4" fill="#28C840" fill-opacity="0.3"/>

  <rect x="488" y="120" width="224" height="100" rx="14" fill="#16171F" stroke="#2A2B3A"/>
  <rect x="512" y="140" width="100" height="10" rx="5" fill="#3A3B4A"/>
  <rect x="512" y="162" width="48" height="28" rx="6" fill="#E2E4EA"/>
  <rect x="512" y="198" width="140" height="8" rx="4" fill="#4B45FF" fill-opacity="0.4"/>

  <rect x="728" y="120" width="224" height="100" rx="14" fill="#16171F" stroke="#2A2B3A"/>
  <rect x="752" y="140" width="90" height="10" rx="5" fill="#3A3B4A"/>
  <rect x="752" y="162" width="72" height="28" rx="6" fill="#E2E4EA"/>
  <rect x="752" y="198" width="100" height="8" rx="4" fill="#6C67FF" fill-opacity="0.4"/>

  <rect x="968" y="120" width="192" height="100" rx="14" fill="#16171F" stroke="#2A2B3A"/>
  <rect x="992" y="140" width="70" height="10" rx="5" fill="#3A3B4A"/>
  <rect x="992" y="162" width="56" height="28" rx="6" fill="#E2E4EA"/>
  <rect x="992" y="198" width="80" height="8" rx="4" fill="#FEBC2E" fill-opacity="0.3"/>

  <!-- Conversation list -->
  <rect x="248" y="240" width="460" height="480" rx="14" fill="#16171F" stroke="#2A2B3A"/>
  <rect x="272" y="260" width="120" height="14" rx="7" fill="#E2E4EA"/>
  <!-- Conversation items -->
  <rect x="260" y="290" width="436" height="60" rx="10" fill="#4B45FF" fill-opacity="0.08" stroke="#4B45FF" stroke-opacity="0.2"/>
  <circle cx="284" cy="320" r="16" fill="#4B45FF"/>
  <rect x="308" y="306" width="120" height="12" rx="6" fill="#E2E4EA"/>
  <rect x="308" y="324" width="200" height="10" rx="5" fill="#3A3B4A"/>
  <rect x="620" y="306" width="48" height="10" rx="5" fill="#3A3B4A"/>
  <circle cx="672" cy="320" r="8" fill="#4B45FF"/>

  <rect x="260" y="360" width="436" height="60" rx="10" fill="transparent"/>
  <circle cx="284" cy="390" r="16" fill="#2A2B3A"/>
  <rect x="308" y="376" width="100" height="12" rx="6" fill="#8E8EA0"/>
  <rect x="308" y="394" width="180" height="10" rx="5" fill="#3A3B4A"/>
  <rect x="620" y="376" width="48" height="10" rx="5" fill="#3A3B4A"/>

  <rect x="260" y="430" width="436" height="60" rx="10" fill="transparent"/>
  <circle cx="284" cy="460" r="16" fill="#2A2B3A"/>
  <rect x="308" y="446" width="140" height="12" rx="6" fill="#8E8EA0"/>
  <rect x="308" y="464" width="160" height="10" rx="5" fill="#3A3B4A"/>
  <rect x="620" y="446" width="48" height="10" rx="5" fill="#3A3B4A"/>

  <rect x="260" y="500" width="436" height="60" rx="10" fill="transparent"/>
  <circle cx="284" cy="530" r="16" fill="#2A2B3A"/>
  <rect x="308" y="516" width="110" height="12" rx="6" fill="#8E8EA0"/>
  <rect x="308" y="534" width="190" height="10" rx="5" fill="#3A3B4A"/>

  <rect x="260" y="570" width="436" height="60" rx="10" fill="transparent"/>
  <circle cx="284" cy="600" r="16" fill="#2A2B3A"/>
  <rect x="308" y="586" width="130" height="12" rx="6" fill="#8E8EA0"/>
  <rect x="308" y="604" width="170" height="10" rx="5" fill="#3A3B4A"/>

  <!-- Right panel - Chat detail -->
  <rect x="724" y="240" width="436" height="480" rx="14" fill="#16171F" stroke="#2A2B3A"/>
  <!-- Chat header -->
  <circle cx="752" cy="268" r="16" fill="#4B45FF"/>
  <rect x="776" y="258" width="100" height="12" rx="6" fill="#E2E4EA"/>
  <rect x="776" y="276" width="60" height="10" rx="5" fill="#28C840"/>
  <!-- Chat messages -->
  <rect x="748" y="304" width="240" height="40" rx="12" fill="#1E1F2E"/>
  <rect x="764" y="316" width="180" height="10" rx="5" fill="#8E8EA0"/>
  <rect x="860" y="360" width="280" height="40" rx="12" fill="#4B45FF" fill-opacity="0.15"/>
  <rect x="876" y="372" width="220" height="10" rx="5" fill="#6C67FF"/>
  <rect x="748" y="416" width="200" height="40" rx="12" fill="#1E1F2E"/>
  <rect x="764" y="428" width="160" height="10" rx="5" fill="#8E8EA0"/>
  <rect x="880" y="472" width="260" height="56" rx="12" fill="#4B45FF" fill-opacity="0.15"/>
  <rect x="896" y="484" width="200" height="10" rx="5" fill="#6C67FF"/>
  <rect x="896" y="502" width="160" height="10" rx="5" fill="#6C67FF" fill-opacity="0.6"/>
  <!-- AI badge -->
  <rect x="896" y="536" width="56" height="20" rx="10" fill="#4B45FF" fill-opacity="0.2"/>
  <rect x="906" y="542" width="36" height="8" rx="4" fill="#4B45FF"/>
  <!-- Input bar -->
  <rect x="748" y="680" width="388" height="24" rx="12" fill="#1E1F2E" stroke="#2A2B3A"/>
  <rect x="768" y="688" width="100" height="8" rx="4" fill="#3A3B4A"/>
</svg>
